<svg width="20" height="14" viewBox="0 0 20 14" fill="none" xmlns="http://www.w3.org/2000/svg">
<path d="M5 10.5C3.61667 10.5 2.4375 10.0125 1.4625 9.0375C0.4875 8.0625 0 6.88333 0 5.5C0 4.11667 0.4875 2.9375 1.4625 1.9625C2.4375 0.9875 3.61667 0.5 5 0.5H8C8.28333 0.5 8.52083 0.595833 8.7125 0.7875C8.90417 0.979167 9 1.21667 9 1.5C9 1.78333 8.90417 2.02083 8.7125 2.2125C8.52083 2.40417 8.28333 2.5 8 2.5H5C4.16667 2.5 3.45833 2.79167 2.875 3.375C2.29167 3.95833 2 4.66667 2 5.5C2 6.33333 2.29167 7.04167 2.875 7.625C3.45833 8.20833 4.16667 8.5 5 8.5H8C8.28333 8.5 8.52083 8.59583 8.7125 8.7875C8.90417 8.97917 9 9.21667 9 9.5C9 9.78333 8.90417 10.0208 8.7125 10.2125C8.52083 10.4042 8.28333 10.5 8 10.5H5ZM7 6.5C6.71667 6.5 6.47917 6.40417 6.2875 6.2125C6.09583 6.02083 6 5.78333 6 5.5C6 5.21667 6.09583 4.97917 6.2875 4.7875C6.47917 4.59583 6.71667 4.5 7 4.5H13C13.2833 4.5 13.5208 4.59583 13.7125 4.7875C13.9042 4.97917 14 5.21667 14 5.5C14 5.78333 13.9042 6.02083 13.7125 6.2125C13.5208 6.40417 13.2833 6.5 13 6.5H7ZM20 5.5H18C18 4.66667 17.7083 3.95833 17.125 3.375C16.5417 2.79167 15.8333 2.5 15 2.5H12C11.7167 2.5 11.4792 2.40417 11.2875 2.2125C11.0958 2.02083 11 1.78333 11 1.5C11 1.21667 11.0958 0.979167 11.2875 0.7875C11.4792 0.595833 11.7167 0.5 12 0.5H15C16.3833 0.5 17.5625 0.9875 18.5375 1.9625C19.5125 2.9375 20 4.11667 20 5.5ZM16 13.5C15.7167 13.5 15.4792 13.4042 15.2875 13.2125C15.0958 13.0208 15 12.7833 15 12.5V10.5H13C12.7167 10.5 12.4792 10.4042 12.2875 10.2125C12.0958 10.0208 12 9.78333 12 9.5C12 9.21667 12.0958 8.97917 12.2875 8.7875C12.4792 8.59583 12.7167 8.5 13 8.5H15V6.5C15 6.21667 15.0958 5.97917 15.2875 5.7875C15.4792 5.59583 15.7167 5.5 16 5.5C16.2833 5.5 16.5208 5.59583 16.7125 5.7875C16.9042 5.97917 17 6.21667 17 6.5V8.5H19C19.2833 8.5 19.5208 8.59583 19.7125 8.7875C19.9042 8.97917 20 9.21667 20 9.5C20 9.78333 19.9042 10.0208 19.7125 10.2125C19.5208 10.4042 19.2833 10.5 19 10.5H17V12.5C17 12.7833 16.9042 13.0208 16.7125 13.2125C16.5208 13.4042 16.2833 13.5 16 13.5Z" fill="#12100E"/>
</svg>
