<svg width="18" height="18" viewBox="0 0 18 18" fill="none" xmlns="http://www.w3.org/2000/svg">
<path d="M2.33268 17.7709C1.87435 17.7709 1.48199 17.6077 1.1556 17.2813C0.82921 16.9549 0.666016 16.5625 0.666016 16.1042V4.43752C0.666016 3.97919 0.82921 3.58683 1.1556 3.26044C1.48199 2.93405 1.87435 2.77085 2.33268 2.77085H9.77018L8.10352 4.43752H2.33268V16.1042H13.9993V10.3125L15.666 8.64585V16.1042C15.666 16.5625 15.5028 16.9549 15.1764 17.2813C14.85 17.6077 14.4577 17.7709 13.9993 17.7709H2.33268ZM11.6452 3.25002L12.8327 4.41669L7.33268 9.91669V11.1042H8.49935L14.0202 5.58335L15.2077 6.75002L9.68685 12.2709C9.53407 12.4236 9.35699 12.5452 9.1556 12.6354C8.95421 12.7257 8.7424 12.7709 8.52018 12.7709H6.49935C6.26324 12.7709 6.06532 12.691 5.9056 12.5313C5.74588 12.3715 5.66602 12.1736 5.66602 11.9375V9.91669C5.66602 9.69446 5.70768 9.48266 5.79102 9.28127C5.87435 9.07988 5.9924 8.9028 6.14518 8.75002L11.6452 3.25002ZM15.2077 6.75002L11.6452 3.25002L13.7285 1.16669C14.0618 0.833354 14.4612 0.666687 14.9264 0.666687C15.3917 0.666687 15.7841 0.833354 16.1035 1.16669L17.2702 2.35419C17.5896 2.67363 17.7493 3.06252 17.7493 3.52085C17.7493 3.97919 17.5896 4.36808 17.2702 4.68752L15.2077 6.75002Z" fill="#FDFDFD"/>
</svg>
