<svg width="24" height="24" viewBox="0 0 24 24" fill="none" xmlns="http://www.w3.org/2000/svg">
<mask id="mask0_159_4145" style="mask-type:alpha" maskUnits="userSpaceOnUse" x="0" y="0" width="24" height="24">
<rect width="24" height="24" fill="#D9D9D9"/>
</mask>
<g mask="url(#mask0_159_4145)">
<path d="M4 22.525C3.45 22.525 2.97917 22.3292 2.5875 21.9375C2.19583 21.5458 2 21.075 2 20.525V6.525C2 5.975 2.19583 5.50417 2.5875 5.1125C2.97917 4.72083 3.45 4.525 4 4.525H12.925L10.925 6.525H4V20.525H18V13.575L20 11.575V20.525C20 21.075 19.8042 21.5458 19.4125 21.9375C19.0208 22.3292 18.55 22.525 18 22.525H4ZM15.175 5.1L16.6 6.5L10 13.1V14.525H11.4L18.025 7.9L19.45 9.3L12.825 15.925C12.6417 16.1083 12.4292 16.2542 12.1875 16.3625C11.9458 16.4708 11.6917 16.525 11.425 16.525H9C8.71667 16.525 8.47917 16.4292 8.2875 16.2375C8.09583 16.0458 8 15.8083 8 15.525V13.1C8 12.8333 8.05 12.5792 8.15 12.3375C8.25 12.0958 8.39167 11.8833 8.575 11.7L15.175 5.1ZM19.45 9.3L15.175 5.1L17.675 2.6C18.075 2.2 18.5542 2 19.1125 2C19.6708 2 20.1417 2.2 20.525 2.6L21.925 4.025C22.3083 4.40833 22.5 4.875 22.5 5.425C22.5 5.975 22.3083 6.44167 21.925 6.825L19.45 9.3Z" fill="#1C1B1F"/>
</g>
</svg>
